<svg width="34" height="34" viewBox="0 0 34 34" fill="none" xmlns="http://www.w3.org/2000/svg">
<path d="M23.4285 32C28.1624 32 32 25.2843 32 17C32 8.71573 28.1624 2 23.4285 2C18.6947 2 14.8571 8.71573 14.8571 17C14.8571 25.2843 18.6947 32 23.4285 32Z" stroke="black" stroke-width="4" stroke-linecap="round" stroke-linejoin="round"/>
<path d="M23.4286 23.4286C25.2038 23.4286 26.6429 20.5504 26.6429 17C26.6429 13.4496 25.2038 10.5714 23.4286 10.5714C21.6534 10.5714 20.2144 13.4496 20.2144 17C20.2144 20.5504 21.6534 23.4286 23.4286 23.4286Z" stroke="black" stroke-width="4" stroke-linecap="round" stroke-linejoin="round"/>
<path d="M10.5714 32C5.83786 32 2 25.2843 2 17C2 8.71571 5.83786 2 10.5714 2M23.4286 2H10.5714M23.4286 32H10.5714M14.8571 15.9286H2M15.9286 8.42857H4.14286M15.9286 24.5H4.14286" stroke="black" stroke-width="4" stroke-linecap="round" stroke-linejoin="round"/>
</svg>
